<svg xmlns="http://www.w3.org/2000/svg" viewBox="0 0 800 600" width="100%" height="100%">
  <rect width="100%" height="100%" fill="#F7F7F4"/>

  <g transform="translate(-10, -30)">
    <path d="M 285 297
             C 275 220, 318 205, 340 200
             C 340 170, 345 155, 355 155
             C 365 155, 370 175, 375 192
             C 455 185, 515 210, 550 260
             C 560 280, 545 295, 545 295
             C 480 315, 400 280, 285 297 Z"
          fill="#2C3233"/>

    <path d="M 285 301
             C 400 284, 480 319, 544 299
             C 525 325, 480 335, 435 342
             C 420 370, 395 390, 380 390
             C 365 390, 355 375, 360 342
             C 310 340, 285 325, 285 301 Z"
          fill="#8E9393"/>

    <circle cx="490" cy="245" r="6.5" fill="#FFFFFF"/>
  </g>

  <text x="400" y="440" font-family="'minimalist geometric sans-serif', 'Montserrat', 'Helvetica Neue', 'Arial', sans-serif" font-size="76" font-weight="900" fill="#0A0A0A" text-anchor="middle" letter-spacing="4">MOLA</text>
  <text x="400" y="470" font-family="'Minimalist Geometric Sans-Serif', 'Montserrat', 'Helvetica Neue', 'Arial', sans-serif" font-size="24" font-weight="400" fill="#0A0A0A" text-anchor="middle" letter-spacing="6.2">INTELLIGENCE</text>
</svg>